<svg width="95" height="104" viewBox="0 0 95 104" fill="none" xmlns="http://www.w3.org/2000/svg">
<path d="M85.8691 13.5244H84.6352C86.9873 9.69501 86.1188 4.55386 82.3438 1.75306C78.2764 -1.26448 72.4962 -0.293164 69.6576 3.94877L63.25 13.5246H8.2054C3.68092 13.5246 0 17.2055 0 21.73V74.1904C0 78.7148 3.68092 82.3957 8.2054 82.3957H40.0776L37.6694 92.5105H32.4718C29.0844 92.5105 26.3285 95.2662 26.3285 98.6536V99.9363H19.9211C18.7993 99.9363 17.8899 100.846 17.8899 101.967C17.8899 103.089 18.7993 103.999 19.9211 103.999H74.1536C75.2755 103.999 76.1848 103.089 76.1848 101.967C76.1848 100.846 75.2755 99.9363 74.1536 99.9363H67.7463V98.6536C67.7463 95.2662 64.9903 92.5105 61.6029 92.5105H56.4053L53.9971 82.3957H85.8693C90.3938 82.3957 94.0747 78.7148 94.0747 74.1904V62.6471V21.7298C94.0747 17.2053 90.3938 13.5244 85.8691 13.5244ZM56.7659 49.2325C53.5901 51.4557 47.6405 48.4338 41.9589 51.4656C40.5726 44.264 41.4466 37.491 48.6624 35.9961C49.5949 35.8017 50.599 35.7137 51.4537 35.7308C53.896 37.5428 56.3663 39.3756 58.8017 41.1827C59.8679 44.2839 59.4677 47.3413 56.7659 49.2325ZM58.8129 27.4606L64.5626 31.7265L60.1409 37.1175C58.3205 35.7669 56.7557 34.6059 54.9353 33.2552C55.3134 32.6903 58.4674 27.9767 58.8129 27.4606ZM73.0341 6.20806C74.5725 3.90855 77.7101 3.37354 79.9232 5.01576C82.1372 6.65818 82.5337 9.81586 80.7794 11.9549C77.6666 15.7498 70.2662 24.7725 67.1416 28.582L61.0744 24.0805L73.0341 6.20806ZM63.6837 98.6536V99.9363H30.3909V98.6536C30.3909 97.5064 31.3244 96.5728 32.4718 96.5728H61.6027C62.7501 96.5728 63.6837 97.5064 63.6837 98.6536ZM52.2292 92.5105H41.8453L44.2535 82.3957H49.821L52.2292 92.5105ZM90.0124 74.1904C90.0124 76.4748 88.1538 78.3334 85.8693 78.3334C82.645 78.3334 11.8309 78.3334 8.2056 78.3334C5.92112 78.3334 4.06258 76.4748 4.06258 74.1904V64.6783H9.86691C10.9887 64.6783 11.8981 63.7687 11.8981 62.6471C11.8981 61.5255 10.9887 60.6159 9.86691 60.6159H4.06218V21.7298C4.06218 19.4453 5.92071 17.5868 8.20519 17.5868H60.5317C58.5858 20.4948 52.9088 28.9787 51.1106 31.6658C47.1301 31.7017 43.1561 33.0884 40.5545 36.1255C37.0144 40.2579 36.3924 46.7512 38.7059 55.4248C39.1014 56.908 40.952 57.4393 42.0718 56.3697C47.3239 51.3512 53.8651 56.8253 59.7229 52.0841C63.2986 49.1897 64.1448 44.5882 62.7965 40.2853C64.619 38.0632 79.5871 19.8142 81.4139 17.5868H85.8689C88.1534 17.5868 90.012 19.4453 90.012 21.7298V60.6157H26.116C24.9942 60.6157 24.0848 61.5253 24.0848 62.6469C24.0848 63.7685 24.9942 64.6781 26.116 64.6781H90.0124V74.1904Z" fill="#2794D2"/>
</svg>
