<svg width="100" height="100" viewBox="0 0 100 100" fill="none" xmlns="http://www.w3.org/2000/svg">
<g clip-path="url(#clip0)">
<path d="M41.6889 6.68628C22.3662 6.68628 6.70215 22.3503 6.70215 41.673C6.70215 60.9957 22.3662 76.6597 41.6889 76.6597C61.0116 76.6597 76.6756 60.9957 76.6756 41.673C76.6546 22.3591 61.0028 6.70731 41.6889 6.68628ZM41.6889 10.0183C51.98 10.0265 61.6236 15.0421 67.5391 23.4633L63.374 27.6283C62.3604 27.015 61.2 26.6868 60.0153 26.6787C56.3348 26.6787 53.3511 29.6624 53.3511 33.3428C53.357 34.5288 53.6833 35.6911 54.2958 36.7066L43.3866 47.6158C41.3209 46.3562 38.7248 46.3562 36.6591 47.6158L29.082 40.0386C29.6945 39.0232 30.0208 37.8609 30.0266 36.6749C30.0312 33.0017 27.0573 30.0203 23.3842 30.0158C20.3464 30.012 17.6921 32.0669 16.9349 35.0089H10.7539C13.9084 20.4421 26.7845 10.0402 41.6889 10.0183ZM63.3473 33.3428C63.3473 35.1832 61.8556 36.6749 60.0153 36.6749C58.1749 36.6749 56.6832 35.1832 56.6832 33.3428C56.6832 31.5025 58.1749 30.0108 60.0153 30.0108C61.8556 30.0108 63.3473 31.5025 63.3473 33.3428ZM43.3549 53.3353C43.3549 55.1756 41.8632 56.6673 40.0228 56.6673C38.1825 56.6673 36.6908 55.1756 36.6908 53.3353C36.6908 51.4949 38.1825 50.0032 40.0228 50.0032C41.8632 50.0032 43.3549 51.4949 43.3549 53.3353ZM26.6946 36.6749C26.6946 38.5153 25.2028 40.007 23.3625 40.007C21.5222 40.007 20.0304 38.5153 20.0304 36.6749C20.0304 34.8346 21.5222 33.3428 23.3625 33.3428C25.2028 33.3428 26.6946 34.8346 26.6946 36.6749ZM57.0693 69.3513C52.3644 71.9636 47.0706 73.3323 41.6889 73.3275C24.2184 73.3393 10.0461 59.1866 10.0342 41.7161C10.0334 40.5886 10.0929 39.4618 10.2125 38.3407H16.9349C17.6924 41.274 20.333 43.3274 23.3625 43.3388C24.5485 43.333 25.7108 43.0067 26.7262 42.3942L34.3034 49.9713C33.6909 50.9868 33.3645 52.149 33.3587 53.3351C33.3587 57.0155 36.3424 59.9992 40.0228 59.9992C43.7033 59.9992 46.687 57.0155 46.687 53.3351C46.6812 52.149 46.3548 50.9868 45.7423 49.9713L56.6515 39.0621C57.667 39.6746 58.8293 40.0009 60.0153 40.0068C63.6957 40.0068 66.6794 37.0231 66.6794 33.3426C66.6736 32.1566 66.3472 30.9944 65.7348 29.9789L69.3667 26.3486C77.8458 41.6195 72.34 60.8724 57.0693 69.3513Z" fill="#2794D2"/>
<path d="M83.3396 16.6823C86.3691 16.6708 89.0097 14.6177 89.7671 11.6842H99.9999V8.35213H89.7671C89.0097 5.41866 86.3691 3.36548 83.3396 3.35402C79.6591 3.35402 76.6754 6.33768 76.6754 10.0182C76.6813 11.2042 77.0076 12.3664 77.6201 13.3819L74.6929 16.3091C60.6867 -1.93835 34.54 -5.37663 16.2925 8.62952C-1.95495 22.6357 -5.39323 48.7826 8.61292 67.0301C21.8337 84.2542 46.0685 88.4324 64.2935 76.6296L69.3216 81.6577L71.6773 84.0134L85.0889 97.425C88.4999 100.836 94.0299 100.836 97.4409 97.425C100.852 94.014 100.852 88.484 97.4409 85.073L84.0293 71.6615L81.6736 69.3057L76.6455 64.2776C85.571 50.5295 85.571 32.8164 76.6455 19.0681L79.9775 15.736C80.9923 16.3487 82.1542 16.6756 83.3396 16.6823ZM83.3396 6.68609C85.1799 6.68609 86.6717 8.17782 86.6717 10.0182C86.6717 11.8585 85.1799 13.3502 83.3396 13.3502C81.4992 13.3502 80.0075 11.8585 80.0075 10.0182C80.0075 8.17782 81.4995 6.68609 83.3396 6.68609ZM95.0851 87.4288C97.2189 89.5147 97.2579 92.9355 95.172 95.0693C93.0861 97.203 89.6653 97.242 87.5315 95.1561C87.5022 95.1276 87.4734 95.0986 87.4447 95.0693L74.0331 81.6577L81.6736 74.0172L95.0851 87.4288ZM79.3178 71.6615L71.6773 79.3019L67.0658 74.6903C67.3007 74.5104 67.5206 74.3121 67.7522 74.1272C67.9837 73.9423 68.252 73.7207 68.5002 73.5124C68.8651 73.2059 69.2249 72.896 69.5781 72.5778C69.7597 72.4112 69.933 72.2446 70.1113 72.078C70.7943 71.4382 71.4558 70.7768 72.0955 70.0937C72.2621 69.9155 72.4287 69.7422 72.5953 69.5606C72.9135 69.2074 73.2234 68.8475 73.53 68.4827C73.7389 68.2361 73.9438 67.9868 74.1447 67.7346C74.328 67.5047 74.5263 67.2848 74.7062 67.0499L79.3178 71.6615ZM72.8569 63.9227C72.3321 64.6558 71.7906 65.3738 71.2192 66.0652C71.0526 66.2668 70.8743 66.4618 70.7027 66.66C70.1929 67.2531 69.6664 67.8285 69.1233 68.386C68.8867 68.6303 68.6462 68.8708 68.4019 69.1074C67.8465 69.6506 67.2713 70.177 66.6759 70.6868C66.4776 70.8534 66.2827 71.035 66.0811 71.2033C65.3897 71.7747 64.6717 72.3162 63.9386 72.841C46.6918 85.1624 22.7219 81.1695 10.4006 63.9227C-1.92079 46.6759 2.07207 22.7061 19.3189 10.3847C36.5657 -1.93668 60.5355 2.05597 72.8569 19.303C82.391 32.6483 82.391 50.5774 72.8569 63.9227Z" fill="#2794D2"/>
</g>
<defs>
<clipPath id="clip0">
<rect width="100" height="100" fill="white"/>
</clipPath>
</defs>
</svg>
