<svg width="100" height="100" viewBox="0 0 100 100" fill="none" xmlns="http://www.w3.org/2000/svg">
<path d="M50 100C47.577 100 45.6055 98.0285 45.6055 95.6055C45.6055 95.5275 45.6076 95.4502 45.6115 95.3732L21.0172 85.1861C20.2123 86.0799 19.0467 86.6426 17.752 86.6426C15.3289 86.6426 13.3574 84.6711 13.3574 82.248C13.3574 79.825 15.3289 77.8535 17.752 77.8535C20.175 77.8535 22.1465 79.825 22.1465 82.248C22.1465 82.326 22.1443 82.4033 22.1404 82.4803L46.7348 92.6674C47.5396 91.7736 48.7053 91.2109 50 91.2109C51.2947 91.2109 52.4604 91.7736 53.2652 92.6674L77.8596 82.4803C77.8555 82.4031 77.8535 82.326 77.8535 82.248C77.8535 79.825 79.825 77.8535 82.248 77.8535C84.6711 77.8535 86.6426 79.825 86.6426 82.248C86.6426 84.6711 84.6711 86.6426 82.248 86.6426C80.9533 86.6426 79.7877 86.0799 78.9828 85.1861L54.3885 95.3732C54.3926 95.4504 54.3945 95.5275 54.3945 95.6055C54.3945 98.0285 52.423 100 50 100ZM50 94.1406C49.1922 94.1406 48.5352 94.7977 48.5352 95.6055C48.5352 96.4133 49.1922 97.0703 50 97.0703C50.8078 97.0703 51.4648 96.4133 51.4648 95.6055C51.4648 94.7977 50.8078 94.1406 50 94.1406ZM82.2479 80.783C81.44 80.783 80.783 81.44 80.783 82.2479C80.783 83.0557 81.44 83.7127 82.2479 83.7127C83.0557 83.7127 83.7127 83.0557 83.7127 82.2479C83.7127 81.44 83.0557 80.783 82.2479 80.783ZM17.7521 80.783C16.9443 80.783 16.2873 81.44 16.2873 82.2479C16.2873 83.0557 16.9443 83.7127 17.7521 83.7127C18.56 83.7127 19.217 83.0557 19.217 82.2479C19.217 81.44 18.5598 80.783 17.7521 80.783ZM50 82.4219C32.1225 82.4219 17.5781 67.8775 17.5781 50C17.5781 32.1225 32.1225 17.5781 50 17.5781C56.3377 17.5781 62.4771 19.407 67.7547 22.8674C68.4313 23.3109 68.6201 24.2191 68.1766 24.8957C67.733 25.5725 66.8244 25.7609 66.1482 25.3176C64.4932 24.2324 62.7449 23.3238 60.9281 22.5988C62.2422 23.9338 63.4666 25.5221 64.5783 27.3482C65.2705 28.485 65.9047 29.6916 66.4781 30.957H72.5271C71.8004 30.1023 71.0205 29.2826 70.1887 28.501C69.5988 27.9471 69.5699 27.0201 70.124 26.4305C70.6779 25.8404 71.6051 25.8117 72.1945 26.3658C78.6941 32.4715 82.4219 41.0857 82.4219 50C82.4219 67.8775 67.8775 82.4219 50 82.4219ZM51.4648 69.043V79.3869C55.4271 78.8154 59.1506 75.9334 62.0762 71.1281C62.4838 70.4588 62.8693 69.7635 63.2324 69.043H51.4648ZM36.7676 69.043C37.1307 69.7633 37.5162 70.4588 37.9238 71.1281C40.8494 75.9336 44.5729 78.8154 48.5352 79.3869V69.043H36.7676ZM66.4783 69.043C65.9049 70.3084 65.2707 71.5148 64.5785 72.6518C63.4701 74.4721 62.2498 76.0564 60.9404 77.3887C65.4479 75.5814 69.4111 72.691 72.5031 69.0432H66.4783V69.043ZM27.4967 69.043C30.5887 72.691 34.552 75.5814 39.0594 77.3885C37.75 76.0563 36.5297 74.4719 35.4213 72.6516C34.7291 71.5148 34.0949 70.3082 33.5215 69.0428H27.4967V69.043ZM67.66 66.1133H74.6912C77.475 61.8617 79.1914 56.8504 79.4563 51.4648H70.2926C70.1494 56.6801 69.2424 61.6789 67.66 66.1133ZM51.4648 66.1133H64.5353C66.233 61.76 67.2092 56.7416 67.3619 51.4648H51.4648V66.1133ZM35.4646 66.1133H48.5352V51.4648H32.6381C32.7908 56.7416 33.767 61.76 35.4646 66.1133ZM25.3088 66.1133H32.34C30.7574 61.6789 29.8506 56.6801 29.7074 51.4648H20.5437C20.8086 56.8504 22.525 61.8617 25.3088 66.1133ZM70.2926 48.5352H79.457C79.2023 43.2381 77.5684 38.2268 74.7215 33.8867H67.66C69.2424 38.3211 70.1494 43.3199 70.2926 48.5352ZM51.4648 48.5352H67.3619C67.2094 43.2584 66.2332 38.24 64.5353 33.8867H51.4648V37.3047C51.4648 38.1139 50.8092 38.7695 50 38.7695C49.1908 38.7695 48.5352 38.1139 48.5352 37.3047V33.8867H35.4646C33.767 38.24 32.7908 43.2584 32.6381 48.5352H48.5352V43.1641C48.5352 42.3549 49.1908 41.6992 50 41.6992C50.8092 41.6992 51.4648 42.3549 51.4648 43.1641V48.5352ZM20.5437 48.5352H29.7074C29.8506 43.3199 30.7576 38.3211 32.34 33.8867H25.3088C22.525 38.1383 20.8086 43.1496 20.5437 48.5352ZM51.4648 30.957H63.2324C62.8693 30.2367 62.4838 29.5412 62.0762 28.8719C59.1506 24.0664 55.4271 21.1846 51.4648 20.6131V30.957ZM36.7676 30.957H48.5352V20.6131C44.5729 21.1846 40.8494 24.0666 37.9238 28.8719C37.5162 29.5412 37.1307 30.2367 36.7676 30.957ZM27.4967 30.957H33.5217C34.0951 29.6916 34.7293 28.4852 35.4215 27.3482C36.5299 25.5279 37.7502 23.9436 39.0596 22.6113C34.552 24.4186 30.5887 27.309 27.4967 30.957ZM85.4057 76.0883C85.2188 76.0883 85.0289 76.0523 84.8457 75.9764C84.0982 75.6668 83.7432 74.81 84.0529 74.0625L92.6672 53.2652C91.7736 52.4604 91.2109 51.2947 91.2109 50C91.2109 48.7053 91.7736 47.5396 92.6674 46.7348L82.4803 22.1404C82.4031 22.1445 82.326 22.1465 82.248 22.1465C79.825 22.1465 77.8535 20.175 77.8535 17.752C77.8535 15.3289 79.825 13.3574 82.248 13.3574C84.6711 13.3574 86.6426 15.3289 86.6426 17.752C86.6426 19.0467 86.0799 20.2123 85.1861 21.0172L95.3732 45.6115C95.4504 45.6074 95.5275 45.6055 95.6055 45.6055C98.0285 45.6055 100 47.577 100 50C100 52.423 98.0285 54.3945 95.6055 54.3945C95.5275 54.3945 95.4502 54.3924 95.3732 54.3885L86.7596 75.1836C86.526 75.7477 85.9805 76.0883 85.4057 76.0883ZM95.6055 48.5352C94.7977 48.5352 94.1406 49.1922 94.1406 50C94.1406 50.8078 94.7977 51.4648 95.6055 51.4648C96.4133 51.4648 97.0703 50.8078 97.0703 50C97.0703 49.1922 96.4133 48.5352 95.6055 48.5352ZM82.2479 16.2873C81.44 16.2873 80.783 16.9443 80.783 17.7521C80.783 18.56 81.44 19.217 82.2479 19.217C83.0557 19.217 83.7127 18.56 83.7127 17.7521C83.7127 16.9443 83.0557 16.2873 82.2479 16.2873ZM14.5943 76.0883C14.0195 76.0883 13.4742 75.7478 13.2404 75.1836L4.62676 54.3885C4.54961 54.3926 4.47246 54.3945 4.39453 54.3945C1.97148 54.3945 0 52.423 0 50C0 47.577 1.97148 45.6055 4.39453 45.6055C4.47246 45.6055 4.5498 45.6076 4.62676 45.6115L14.8139 21.0172C13.9201 20.2123 13.3574 19.0467 13.3574 17.752C13.3574 15.3289 15.3289 13.3574 17.752 13.3574C19.0467 13.3574 20.2123 13.9201 21.0172 14.8139L45.6115 4.62676C45.6074 4.54961 45.6055 4.47246 45.6055 4.39453C45.6055 1.97148 47.577 0 50 0C52.423 0 54.3945 1.97148 54.3945 4.39453C54.3945 4.47246 54.3924 4.5498 54.3885 4.62676L75.2125 13.2523C75.96 13.5619 76.315 14.4187 76.0053 15.1662C75.6957 15.9137 74.8387 16.2691 74.0914 15.959L53.2652 7.33262C52.4604 8.22617 51.2945 8.78906 50 8.78906C48.7053 8.78906 47.5396 8.22637 46.7348 7.33262L22.1404 17.5197C22.1445 17.5969 22.1465 17.674 22.1465 17.752C22.1465 20.175 20.175 22.1465 17.752 22.1465C17.674 22.1465 17.5967 22.1443 17.5197 22.1404L7.33262 46.7348C8.22637 47.5396 8.78906 48.7053 8.78906 50C8.78906 51.2947 8.22637 52.4604 7.33262 53.2652L15.9469 74.0625C16.2566 74.81 15.9018 75.6668 15.1541 75.9764C14.9709 76.0523 14.7811 76.0883 14.5943 76.0883ZM4.39453 48.5352C3.58672 48.5352 2.92969 49.1922 2.92969 50C2.92969 50.8078 3.58672 51.4648 4.39453 51.4648C5.20234 51.4648 5.85938 50.8078 5.85938 50C5.85938 49.1922 5.20234 48.5352 4.39453 48.5352ZM17.7521 16.2873C16.9443 16.2873 16.2873 16.9443 16.2873 17.7521C16.2873 18.56 16.9443 19.217 17.7521 19.217C18.56 19.217 19.217 18.56 19.217 17.7521C19.217 16.9443 18.5598 16.2873 17.7521 16.2873ZM50 2.92969C49.1922 2.92969 48.5352 3.58672 48.5352 4.39453C48.5352 5.20234 49.1922 5.85938 50 5.85938C50.8078 5.85938 51.4648 5.20234 51.4648 4.39453C51.4648 3.58672 50.8078 2.92969 50 2.92969Z" fill="#2794D2"/>
</svg>
