<svg width="90" height="100" viewBox="0 0 90 100" fill="none" xmlns="http://www.w3.org/2000/svg">
<path d="M44.9958 31.8946C47.2681 31.8946 49.3527 30.6526 50.4357 28.653C50.821 27.9417 50.5566 27.0526 49.8454 26.6673C49.1333 26.2815 48.2449 26.5464 47.8597 27.2575C47.2892 28.3106 46.1919 28.9647 44.996 28.9647C43.8423 28.9647 42.7984 28.3731 42.2033 27.3823C41.7867 26.6885 40.8865 26.4639 40.1935 26.8805C39.4998 27.2969 39.2751 28.1968 39.6917 28.8905C40.804 30.7436 42.8365 31.8946 44.9958 31.8946Z" fill="#2794D2"/>
<path d="M20.592 30.6146V31.9209C20.592 37.7457 25.3309 42.4846 31.1557 42.4846H41.7094C42.5186 42.4846 43.1742 41.8287 43.1742 41.0197C43.1742 40.2107 42.5186 39.5549 41.7094 39.5549H31.1557C26.9463 39.5549 23.5217 36.1303 23.5217 31.9209V31.1533C23.5338 31.1533 23.5457 31.1543 23.5578 31.1543H26.3756C26.8375 34.591 29.7875 37.2504 33.3488 37.2504H49.823C50.6322 37.2504 51.2879 36.5945 51.2879 35.7855C51.2879 34.9766 50.6322 34.3207 49.823 34.3207H33.3488C31.0834 34.3207 29.2404 32.4775 29.2404 30.2123V13.1361C29.2404 10.8707 31.0836 9.02773 33.3488 9.02773H56.7461C59.0115 9.02773 60.8545 10.8709 60.8545 13.1361V30.2123C60.8545 32.4777 59.0113 34.3207 56.7461 34.3207C55.9369 34.3207 55.2813 34.9766 55.2813 35.7855C55.2813 36.5945 55.9369 37.2504 56.7461 37.2504C60.3074 37.2504 63.2574 34.591 63.7193 31.1543H66.5371C71.1902 31.1543 74.9758 27.3687 74.9758 22.7154V21.4066C74.9758 17.7967 72.6967 14.7102 69.5021 13.507V12.0078C69.5021 5.38672 64.1164 0 57.4963 0H32.5996C25.9785 0 20.592 5.38672 20.592 12.0078V13.5074C17.398 14.7107 15.1191 17.7969 15.1191 21.4066V22.7154C15.1191 26.3252 17.3979 29.4115 20.592 30.6146ZM72.0461 21.4066V22.7154C72.0461 25.7531 69.5748 28.2246 66.5371 28.2246H63.7842V15.8977H66.5371C69.5746 15.8977 72.0461 18.3689 72.0461 21.4066ZM23.5215 12.0078C23.5215 7.00215 27.5939 2.92969 32.5994 2.92969H57.4961C62.5006 2.92969 66.5723 7.00215 66.5723 12.0078V12.9689C66.5604 12.9689 66.5488 12.968 66.5369 12.968H63.7797C63.6898 9.16484 60.5703 6.09805 56.7459 6.09805H33.3488C29.5244 6.09805 26.4049 9.16484 26.315 12.968H23.5578C23.5457 12.968 23.5338 12.9688 23.5215 12.9689V12.0078ZM18.0488 21.4066C18.0488 18.3689 20.5201 15.8977 23.5578 15.8977H26.3107V28.2244H23.5578C23.5457 28.2244 23.5338 28.2236 23.5217 28.2234V26.4227C23.5217 25.6137 22.866 24.9578 22.0568 24.9578C21.2477 24.9578 20.592 25.6137 20.592 26.4227V27.3543C19.0641 26.374 18.0488 24.6615 18.0488 22.7152V21.4066Z" fill="#2794D2"/>
<path d="M45.0473 79.0273C41.9811 79.0273 39.4863 81.5219 39.4863 84.5881C39.4863 87.6543 41.9809 90.149 45.0473 90.149C48.1137 90.149 50.608 87.6545 50.608 84.5881C50.608 81.5217 48.1135 79.0273 45.0473 79.0273ZM45.0473 87.2193C43.5963 87.2193 42.416 86.0391 42.416 84.5881C42.416 83.1371 43.5963 81.957 45.0473 81.957C46.498 81.957 47.6783 83.1373 47.6783 84.5881C47.6783 86.0389 46.498 87.2193 45.0473 87.2193Z" fill="#2794D2"/>
<path d="M88.1783 97.0703H81.6299V66.5291C81.6299 60.4815 78.7572 54.8176 73.9457 51.3785C70.9758 49.2408 67.1154 47.9893 63.2092 48.1078C62.4 48.1078 61.7443 48.7637 61.7443 49.5727C61.7443 50.3817 62.4 51.0375 63.2092 51.0375C66.2312 50.9375 69.5516 51.8164 72.2418 53.7617C76.2857 56.6522 78.7 61.425 78.7 66.5291V80.0781H68.9361V71.1879C68.9361 69.3553 67.4451 67.8643 65.6123 67.8643H24.4818C22.649 67.8643 21.158 69.3553 21.158 71.1879V97.0695H11.3941V83.0078H15.6236C16.4328 83.0078 17.0885 82.352 17.0885 81.543C17.0885 80.734 16.4328 80.0781 15.6236 80.0781H11.3941V66.5291C11.3941 58.3664 17.9213 51.0375 26.2875 51.0375H32.1434L34.0621 61.6594C34.1883 62.3567 34.7951 62.8639 35.5037 62.8639H54.5908C55.2994 62.8639 55.9062 62.3567 56.0324 61.6594L58.1687 49.8322C58.327 49.0194 57.6795 48.0678 56.682 48.1078H26.2875C16.3432 48.1078 8.46445 56.7619 8.46445 66.5291V97.0703H1.82129C1.01211 97.0703 0.356445 97.7262 0.356445 98.5352C0.356445 99.3442 1.01211 100 1.82129 100H88.1783C88.9875 100 89.6432 99.3442 89.6432 98.5352C89.6432 97.7262 88.9875 97.0703 88.1783 97.0703ZM35.1207 51.0377H43.535V59.9344H36.7275L35.1207 51.0377ZM53.3668 59.9342H46.4646V51.0375H54.9738L53.3668 59.9342ZM78.7002 83.0078V97.0695H68.9363V83.0078H78.7002ZM24.0879 71.1879C24.0879 70.9707 24.2646 70.794 24.482 70.794H65.6127C65.8299 70.794 66.0068 70.9707 66.0068 71.1879V97.0695H24.0879V71.1879Z" fill="#2794D2"/>
<path d="M41.496 20.3757C41.496 17.6104 39.2462 15.3608 36.4812 15.3608C33.7161 15.3608 31.4663 17.6104 31.4663 20.3757C31.4663 23.1409 33.7161 25.3905 36.4812 25.3905C39.2462 25.3905 41.496 23.1407 41.496 20.3757ZM36.4812 22.4608C35.3313 22.4608 34.396 21.5255 34.396 20.3757C34.396 19.2259 35.3313 18.2905 36.4812 18.2905C37.631 18.2905 38.5663 19.2259 38.5663 20.3757C38.5663 21.5255 37.6308 22.4608 36.4812 22.4608Z" fill="#2794D2"/>
<path d="M58.8622 20.3757C58.8622 17.6104 56.6124 15.3608 53.8474 15.3608C51.0823 15.3608 48.8325 17.6104 48.8325 20.3757C48.8325 23.1409 51.0823 25.3905 53.8474 25.3905C56.6124 25.3905 58.8622 23.1407 58.8622 20.3757ZM51.7622 20.3757C51.7622 19.2259 52.6976 18.2905 53.8474 18.2905C54.9972 18.2905 55.9325 19.2259 55.9325 20.3757C55.9325 21.5255 54.9972 22.4608 53.8474 22.4608C52.6976 22.4608 51.7622 21.5253 51.7622 20.3757Z" fill="#2794D2"/>
</svg>
