<svg width="100" height="100" viewBox="0 0 100 100" fill="none" xmlns="http://www.w3.org/2000/svg">
<path d="M68.3335 0H31.6668C27.0668 0.00541667 23.3389 3.73333 23.3335 8.33333V91.6667C23.3389 96.2667 27.0668 99.9946 31.6668 100H68.3335C72.9335 99.9946 76.6614 96.2667 76.6668 91.6667V8.33333C76.6614 3.73333 72.9335 0.00541667 68.3335 0ZM73.3335 91.6667C73.3335 94.4281 71.095 96.6667 68.3335 96.6667H31.6668C28.9054 96.6667 26.6668 94.4281 26.6668 91.6667V86.6667H73.3335V91.6667ZM73.3335 83.3333H26.6668V18.3333H73.3335V83.3333ZM73.3335 15H26.6668V8.33333C26.6668 5.57187 28.9054 3.33333 31.6668 3.33333H68.3335C71.095 3.33333 73.3335 5.57187 73.3335 8.33333V15Z" fill="#2794D2"/>
<path d="M61.6668 8.33325H38.3335V11.6666H61.6668V8.33325Z" fill="#2794D2"/>
<path d="M53.3332 90H46.6665V93.3333H53.3332V90Z" fill="#2794D2"/>
<path d="M36.6667 21.6667H30V25.0001H36.6667V21.6667Z" fill="#2794D2"/>
<path d="M46.6667 21.6667H40V25.0001H46.6667V21.6667Z" fill="#2794D2"/>
<path d="M35.0002 48.3333C34.0797 48.3333 33.3335 49.0795 33.3335 49.9999V58.3333C33.3335 59.2537 34.0797 59.9999 35.0002 59.9999C35.9206 59.9999 36.6668 59.2537 36.6668 58.3333V49.9999C36.6668 49.0795 35.9206 48.3333 35.0002 48.3333Z" fill="#2794D2"/>
<path d="M65.0002 48.3333C64.0797 48.3333 63.3335 49.0795 63.3335 49.9999V58.3333C63.3335 59.2537 64.0797 59.9999 65.0002 59.9999C65.9206 59.9999 66.6668 59.2537 66.6668 58.3333V49.9999C66.6668 49.0795 65.9206 48.3333 65.0002 48.3333Z" fill="#2794D2"/>
<path d="M55 38.3333V34.9999C55 34.0795 54.2538 33.3333 53.3333 33.3333C52.4129 33.3333 51.6667 34.0795 51.6667 34.9999V38.3333H48.3333V34.9999C48.3333 34.0795 47.5871 33.3333 46.6667 33.3333C45.7463 33.3333 45 34.0795 45 34.9999V38.3333C42.2385 38.3333 40 40.5718 40 43.3333V68.3333H43.3333V74.9999C43.3333 75.9203 44.0796 76.6666 45 76.6666C45.9204 76.6666 46.6667 75.9203 46.6667 74.9999V68.3333H53.3333V74.9999C53.3333 75.9203 54.0796 76.6666 55 76.6666C55.9204 76.6666 56.6667 75.9203 56.6667 74.9999V68.3333H60V43.3333C60 40.5718 57.7615 38.3333 55 38.3333ZM56.6667 64.9999H43.3333V51.6666H56.6667V64.9999ZM56.6667 48.3333H43.3333V43.3333C43.3333 42.4128 44.0796 41.6666 45 41.6666H55C55.9204 41.6666 56.6667 42.4128 56.6667 43.3333V48.3333Z" fill="#2794D2"/>
</svg>
